<?xml version="1.0" encoding="utf-8"?>
<!-- Generator: Adobe Illustrator 24.1.3, SVG Export Plug-In . SVG Version: 6.00 Build 0)  -->
<svg version="1.1" id="flag-icon-css-cn" xmlns="http://www.w3.org/2000/svg" xmlns:xlink="http://www.w3.org/1999/xlink" x="0px"
	 y="0px" viewBox="0 0 512 512" style="enable-background:new 0 0 512 512;" xml:space="preserve">
<style type="text/css">
	.st0{fill:#FF0000;}
	.st1{fill:#FFFFFF;}
</style>
<path class="st0" d="M0,0h512v512H0V0z"/>
<g>
	<path class="st1" d="M182.9,153.4v14.7h-33.8v20.8h28.1v14.7h-28.1v32h-19.2v-82.3H182.9z"/>
	<path class="st1" d="M211.9,205.2v30.4h-19.1v-82.3h26.8c5.9,0,11,0.6,15.2,1.8c4.2,1.2,7.6,2.9,10.3,5.1c2.7,2.2,4.6,4.8,5.8,7.7
		c1.2,3,1.8,6.2,1.8,9.7c0,2.7-0.4,5.2-1.1,7.6c-0.7,2.4-1.8,4.6-3.2,6.6s-3.1,3.8-5.2,5.4c-2.1,1.6-4.4,2.9-7.1,3.9
		c1.3,0.6,2.5,1.4,3.6,2.4c1.1,0.9,2.1,2.1,2.9,3.4l17.5,28.6h-17.3c-3.2,0-5.5-1.2-6.9-3.6l-13.7-23.9c-0.6-1.1-1.3-1.8-2.1-2.3
		c-0.8-0.5-1.9-0.7-3.4-0.7H211.9z M211.9,192.1h7.7c2.6,0,4.8-0.3,6.6-1c1.8-0.7,3.3-1.6,4.5-2.7c1.2-1.2,2-2.5,2.5-4.1
		c0.5-1.6,0.8-3.2,0.8-5.1c0-3.6-1.2-6.4-3.5-8.5c-2.4-2-6-3.1-10.9-3.1h-7.7V192.1z"/>
	<path class="st1" d="M321,153.4v14.7h-33.8v19.2H313v14.1h-25.9V221H321v14.7h-53v-82.3H321z"/>
	<path class="st1" d="M384.8,153.4v14.7H351v19.2h25.9v14.1H351V221h33.8v14.7h-53v-82.3H384.8z"/>
	<path class="st1" d="M139.3,270.4v6.9c0,1-0.2,1.9-0.5,2.9c-0.3,0.9-0.8,1.8-1.3,2.7L98.8,338H138v14.7H74.5v-7.3
		c0-0.9,0.1-1.7,0.5-2.6c0.3-0.8,0.7-1.6,1.2-2.3l38.7-55.4H77.7v-14.7H139.3z"/>
	<path class="st1" d="M226.9,311.5c0,6-1,11.5-3.1,16.6c-2.1,5.1-4.9,9.6-8.7,13.4c-3.7,3.8-8.2,6.8-13.5,8.9
		c-5.3,2.1-11.1,3.2-17.5,3.2c-6.4,0-12.2-1.1-17.5-3.2c-5.3-2.1-9.8-5.1-13.5-8.9c-3.7-3.8-6.6-8.2-8.7-13.4
		c-2.1-5.1-3.1-10.7-3.1-16.6c0-5.9,1-11.5,3.1-16.6c2.1-5.1,5-9.6,8.7-13.3c3.7-3.8,8.3-6.7,13.5-8.9c5.3-2.1,11.1-3.2,17.5-3.2
		c6.4,0,12.2,1.1,17.5,3.2s9.7,5.1,13.5,8.9c3.7,3.8,6.6,8.2,8.7,13.3C225.9,300.1,226.9,305.6,226.9,311.5z M207.4,311.5
		c0-4.1-0.5-7.7-1.6-11c-1.1-3.3-2.6-6-4.5-8.3c-2-2.3-4.4-4-7.3-5.2c-2.9-1.2-6.1-1.8-9.8-1.8c-3.7,0-7,0.6-9.9,1.8
		c-2.9,1.2-5.3,2.9-7.3,5.2c-2,2.3-3.5,5-4.5,8.3c-1.1,3.3-1.6,6.9-1.6,11c0,4.1,0.5,7.8,1.6,11c1.1,3.3,2.6,6,4.5,8.3
		c2,2.3,4.4,4,7.3,5.2c2.9,1.2,6.2,1.8,9.9,1.8c3.7,0,6.9-0.6,9.8-1.8c2.9-1.2,5.3-2.9,7.3-5.2c2-2.3,3.5-5,4.5-8.3
		C206.8,319.3,207.4,315.6,207.4,311.5z"/>
	<path class="st1" d="M248.2,270.5c0.6,0.1,1.1,0.2,1.5,0.4c0.5,0.2,0.9,0.5,1.3,0.9c0.4,0.4,0.9,0.9,1.4,1.5l39.1,49.4
		c-0.2-1.6-0.3-3.1-0.3-4.6c-0.1-1.5-0.1-2.9-0.1-4.2v-43.5h16.8v82.3H298c-1.5,0-2.7-0.2-3.7-0.7c-1-0.5-2-1.3-2.9-2.5l-38.8-49
		c0.1,1.4,0.2,2.8,0.3,4.2c0.1,1.4,0.1,2.7,0.1,3.9v44.1h-16.8v-82.3h10.1C246.9,270.4,247.6,270.4,248.2,270.5z"/>
	<path class="st1" d="M374.4,270.4v14.7h-33.8v19.2h25.9v14.1h-25.9V338h33.8v14.7h-53v-82.3H374.4z"/>
	<path class="st1" d="M431.2,287.1c-0.6,0.9-1.2,1.6-1.8,2c-0.6,0.5-1.4,0.7-2.4,0.7c-0.9,0-1.8-0.3-2.8-0.8c-1-0.5-2.1-1.2-3.4-1.8
		s-2.7-1.3-4.3-1.8c-1.6-0.5-3.5-0.8-5.5-0.8c-3.6,0-6.2,0.8-8,2.3c-1.8,1.5-2.6,3.6-2.6,6.2c0,1.7,0.5,3,1.6,4.1
		c1.1,1.1,2.4,2,4.2,2.8c1.7,0.8,3.7,1.5,5.9,2.2c2.2,0.7,4.5,1.4,6.8,2.2c2.3,0.8,4.5,1.8,6.7,2.9c2.2,1.1,4.2,2.5,5.9,4.2
		c1.7,1.7,3.1,3.8,4.2,6.2s1.6,5.4,1.6,8.8c0,3.8-0.7,7.4-2,10.7c-1.3,3.3-3.2,6.2-5.7,8.7c-2.5,2.5-5.6,4.4-9.3,5.8
		c-3.7,1.4-7.8,2.1-12.5,2.1c-2.6,0-5.2-0.3-7.8-0.8c-2.7-0.5-5.2-1.3-7.7-2.2c-2.5-1-4.8-2.1-7-3.4c-2.2-1.3-4.1-2.8-5.7-4.4
		l5.6-8.9c0.4-0.7,1-1.2,1.8-1.6c0.8-0.4,1.6-0.6,2.4-0.6c1.1,0,2.3,0.4,3.4,1.1c1.1,0.7,2.4,1.5,3.9,2.4s3.1,1.7,5,2.4
		c1.9,0.7,4.1,1.1,6.7,1.1c3.5,0,6.2-0.8,8.1-2.3c1.9-1.5,2.9-3.9,2.9-7.3c0-1.9-0.5-3.5-1.6-4.7s-2.4-2.2-4.2-3
		c-1.7-0.8-3.7-1.5-5.8-2.1c-2.2-0.6-4.4-1.3-6.7-2s-4.5-1.6-6.7-2.7s-4.1-2.5-5.8-4.2c-1.7-1.8-3.1-3.9-4.2-6.6
		c-1.1-2.6-1.6-5.8-1.6-9.7c0-3.1,0.6-6.1,1.9-9c1.2-2.9,3.1-5.6,5.5-7.9c2.4-2.3,5.4-4.1,8.9-5.5c3.5-1.4,7.5-2.1,12-2.1
		c2.5,0,5,0.2,7.4,0.6c2.4,0.4,4.7,1,6.8,1.8c2.1,0.8,4.2,1.7,6,2.8c1.9,1.1,3.5,2.3,5,3.6L431.2,287.1z"/>
</g>
</svg>
