<?xml version="1.0" encoding="utf-8"?>
<!-- Generator: Adobe Illustrator 24.1.3, SVG Export Plug-In . SVG Version: 6.00 Build 0)  -->
<svg version="1.1" id="flag-icon-css-hn" xmlns="http://www.w3.org/2000/svg" xmlns:xlink="http://www.w3.org/1999/xlink" x="0px"
	 y="0px" viewBox="0 0 512 512" style="enable-background:new 0 0 512 512;" xml:space="preserve">
<style type="text/css">
	.st0{fill:#CCCCCC;}
</style>
<g>
	<path class="st0" d="M256,485.5C129.5,485.5,26.5,382.6,26.5,256c0-126.5,103-229.5,229.5-229.5s229.5,103,229.5,229.5
		C485.5,382.6,382.5,485.5,256,485.5z M256,47.4C141,47.4,47.4,141,47.4,256S141,464.6,256,464.6S464.6,371,464.6,256
		S371,47.4,256,47.4z"/>
	<path class="st0" d="M193.9,379.8c-12.9,0-51.9-4.9-65.1-62.7c-2.2-9.7-3.3-20-3.2-31.5c0-11.4-1.4-39.5-16.3-54.5
		c-6.7-6.7-15.3-10-26.3-10.1c-4.1,0.3-24.4,1.1-44.5-11l-6.7-4l2-7.5C54.1,120,115.6,57.5,194.2,35.3l7.9-2.2l4,7.2
		c9.6,17.1,31.1,59.5,23.1,83.1c-5.6,16.8-27.5,47.9-71.2,45.6c-8.7-0.4-17,0.3-24.8,2.1c-2.8,0.7-5,1.3-6.6,1.9
		c5.5,3.7,18.6,10.4,50.1,20.2c0.4,0.1,23.5,6.1,37.2,31c9.4,17.2,30.9,24.2,48.9,15.9c6.7-3.1,14.4-2.8,20.9,0.9
		c6.6,3.6,11.1,10.2,12.1,17.6c2.2,16.6,0.6,48-34.8,71c-9.2,6-16.5,14.1-21.3,23.5c-8.2,16.3-24.6,26.4-42.9,26.6
		C196.2,379.8,195.2,379.8,193.9,379.8z M81.9,200.2h0.6c16.8,0,30.8,5.5,41.5,16.2c19.7,19.8,22.5,51.9,22.4,69.3
		c0,9.9,0.8,18.6,2.7,26.8c11.2,49.1,42.5,46.9,46.1,46.5l1.4-0.1c10.5,0,20-5.8,24.7-15.1c6.4-12.7,16.3-23.6,28.5-31.6
		c19.7-12.8,28.3-29.9,25.5-50.8c-0.2-1.3-1.1-1.9-1.5-2.1c-0.5-0.3-1.3-0.5-2.2-0.1c-27.9,12.7-61.2,1.8-75.9-24.9
		c-9.2-16.7-24-20.9-24.6-21c-57.7-17.9-68.9-29.3-68.5-41.9c0.5-14.6,19.6-19.1,25.9-20.6c9.7-2.3,20-3.2,30.6-2.6
		c38.7,2.1,50.2-31.1,50.3-31.4c3.5-10.3-5.8-36.2-17.6-58.9c-65,21.2-116,73-135.7,138c13.3,5.6,25,4.5,25.2,4.5L81.9,200.2z"/>
	<path class="st0" d="M415.8,421.4l-7.5-6.4c-23-19.4-30.9-48.3-22.8-83.8c2.8-12-3.2-24.4-14.5-30.1c-35.4-17.9-41.1-50-41.4-51.4
		c-4.9-44.7,10.9-62.1,25-68.8c10.3-4.9,22.7-4.4,34.1,1.5c7.4,3.8,29.8,12,77.4,5.6l9.1-1.3l2.4,8.9c5.2,19.6,7.9,39.8,7.9,60
		c0,59.3-22.4,115.6-63,158.6L415.8,421.4z M369.7,198.4c-2.2,0-4.2,0.4-6,1.3c-14.6,7-15.3,29.5-13.3,47.1
		c0.1,0.3,4.4,22.6,30.1,35.6c19.9,10,30.3,32,25.4,53.4c-5.3,23.4-2.4,42.2,8.8,56c32.3-38,50.1-85.9,50.1-136.3
		c0-15.4-1.7-30.8-5-45.8c-45.5,4.8-69.8-3.3-80.5-8.8C375.9,199.3,372.7,198.4,369.7,198.4z"/>
	<path class="st0" d="M339.3,137c-16.4,0-29.6-9.3-35.7-16.3l-1.4-2c-16-30.9,19-58.3,30.5-67.3l9.7-8.1l5.9,2.6
		c19.6,8.6,37.9,20,54.4,33.6l11.6,9.6l-17.1,9.8c-8.5,5.8-13.7,11.4-16.4,15c-5.2,7-10.3,11.8-16,15.4
		C355.8,134.9,347.2,137,339.3,137z M320.1,107.8c3.5,3.5,16.6,14.4,33.6,3.8c3.4-2.1,6.7-5.4,10.3-10.2c2.8-3.7,7.3-8.8,14.2-14.4
		c-10.2-7.4-21.1-13.9-32.6-19.3C315.6,91.2,318,103,320.1,107.8z"/>
	<path class="st0" d="M256,485.5c-21.6,0-43.2-3.1-64.1-9.1l-8.4-2.5l1.6-14.6c0.3-38.8,32-70.3,70.9-70.3
		c25.1,0,46.2,17.8,50.1,42.2c2,12.4,5.3,23.6,9.9,33.3l5.6,11.7l-12.6,3C291.6,483.4,273.7,485.5,256,485.5z M206,458.6
		c28.1,6.9,57.4,8,86.1,2.9c-2.9-8.3-5.2-17.3-6.7-26.9c-2.2-14.1-14.9-24.7-29.5-24.7C228.9,410,206.8,431.6,206,458.6z"/>
</g>
</svg>
