<?xml version="1.0" encoding="utf-8"?>
<!-- Generator: Adobe Illustrator 27.0.0, SVG Export Plug-In . SVG Version: 6.00 Build 0)  -->
<svg version="1.1" id="Layer_1" xmlns="http://www.w3.org/2000/svg" xmlns:xlink="http://www.w3.org/1999/xlink" x="0px" y="0px"
	 viewBox="0 0 512 512" style="enable-background:new 0 0 512 512;" xml:space="preserve">
<style type="text/css">
	.st0{fill:#010101;}
	.st1{fill:#9FC7FD;}
	.st2{fill:#050607;}
	.st3{fill:#FD9155;}
	.st4{fill:#D3E879;}
</style>
<g>
	<path class="st0" d="M452,304.9c6.6,1.4,8.9,4.1,8.9,10.7c0,15.4,0,30.8,0,46.3c0,4.5-1.8,7.7-5.9,9.5
		c-25.2,11.4-51.3,19.2-79.3,18.1c-24.3-0.9-47.1-8.1-69.1-18.1c-22.7-10.3-46.2-17.9-71.4-17.3c-19.9,0.5-38.7,6.2-57.1,13.6
		c-2.6,1-2.1,2.8-2.1,4.6c0,32.2,0,64.4,0,96.6c0,1-0.1,2.1,0,3.1c0.6,5.4-1.4,9.4-6.3,12c-1.8,0-3.6,0-5.3,0
		c-4.8-2.6-6.3-6.6-6.3-12c0.1-54.7,0-109.5,0.2-164.2c0-3.7-0.9-4.1-4.2-3.2c-9.5,2.4-18.7,5.5-27.8,9.1c-3,1.1-3.8,2.6-3.8,5.7
		c0.1,50.9,0,101.8,0.2,152.6c0,5.4-1.5,9.4-6.3,12c-1.8,0-3.6,0-5.3,0c-4.8-2.6-6.3-6.6-6.3-12c0.1-71.8,0.1-143.7,0.1-215.5
		c0-1.8,0-3.5,0-5.7c-11,2.5-21.3,5.8-31.6,9.5c-3.2,1.2-4.1,2.6-4.1,6c0.1,68.6,0,137.2,0.2,205.7c0,5.4-1.5,9.5-6.3,12
		c-1.8,0-3.6,0-5.3,0c-4.8-2.6-6.3-6.6-6.3-12c0.1-144,0.1-288,0-432c0-5.4,1.6-9.3,6.3-11.9c1.8,0,3.6,0,5.3,0
		c5.3,2.8,7.1,7.4,6.1,13.5c12.3-4.4,24.3-7.9,36.6-10.4c5.4-1.1,11-1,16.1-3.1c9.2,0,18.4,0,27.6,0c5.8,2,12,2,18,3.3
		c16.4,3.4,32.3,8.5,47.7,15.2c21.6,9.4,44,16.1,67.7,17c25.5,1,49.5-5.8,72.9-15.2c1.1-0.4,2.2-1,3.3-1.4c7.1-2.8,13,1.1,13.1,8.7
		c0.1,16.9,0,33.8,0,50.8c0,1.6,0,3.3,0,5.3c7.3-2,14-4.8,20.7-7.8c9.4-4.2,14.9-0.5,14.9,9.8c0,18.1,0,36.2,0,54.3
		c0,1.5,0,2.9,0,4.7c13.9-2.8,26.8-7.4,39.4-13.1c3-1.3,5.8-2.2,8.9-0.6c3.5,1.8,5.1,4.7,5.1,8.6c0,21.8,0,43.6,0,65.4
		c0,5.7-2.6,8.4-8.9,9.8c-6.8-1.5-8.9-4.1-8.9-11.1c0-15.7-0.1-31.5,0.1-47.2c0-3.6-0.9-4-3.9-2.6c-3,1.3-6.1,2.2-9.2,3.2
		c-22.9,7.2-46.1,10.8-70.1,6.8c-19.9-3.3-38.7-9.8-56.9-18.1c-19.3-8.8-39.4-14.8-60.7-15.6c-21.9-0.9-42.5,5.1-62.7,13
		c-2.7,1.1-3.7,2.3-3.7,5.4c0.1,56.1,0.1,112.2,0,168.3c0,3.9,0.9,4.3,4.3,3c17.7-6.6,36-11.2,55-11.6c27.2-0.5,52.7,7,77.2,18.2
		c19.7,9,40,15.7,61.7,17.1c23.5,1.5,45.5-4.9,67-13.5c2.3-0.9,2-2.6,2-4.3c0-12.6,0-25.2,0-37.9C443,309,445.2,306.3,452,304.9z
		 M354,68.1c-1.9,0.7-3.3,1.2-4.6,1.6c-19.2,6.5-38.7,11.3-59.1,11.7c-28.7,0.5-55.7-7-81.8-18.3C187.3,54,165.5,47.4,142.5,46
		c-24.1-1.4-47,4.7-69.5,12.9c-3.2,1.2-4.2,2.6-4.2,6C69,122.6,69,180.4,69,238.1c0,1.4-0.4,2.9,0.5,4.4c10.2-3.7,20.5-7,31.1-9
		c3.4-0.6,4-2.1,4-5.3c-0.1-43.8-0.1-87.6-0.1-131.4c0-1.5-0.1-3,0.1-4.5c0.4-4.8,4.2-8.3,8.8-8.3c4.6,0,8.9,3.5,8.8,8.3
		c-0.1,4.6,1.3,4.6,4.9,3.2C162.9,81.7,199,80.5,235.5,93c14.7,5.1,28.5,12.4,43.2,17.4c23.5,8.1,47.3,12.2,72.1,6.8
		c2.3-0.5,3.2-1.1,3.2-3.6C353.9,98.7,354,83.7,354,68.1z M122.4,295.8c10.7-3.9,20.8-7.3,31.3-9.4c3.4-0.7,4.5-1.9,4.4-5.4
		c-0.1-42.9-0.1-85.8-0.1-128.7c0-1.5-0.1-3,0.1-4.4c0.6-4.3,4.2-7.6,8.5-7.7c4.1-0.2,7.7,2.6,9,6.6c0.6,2-1,5.1,1.3,5.7
		c1.8,0.5,4.1-1.1,6.2-1.9c1-0.3,1.9-0.7,2.9-1c23.8-7.9,48-11.9,73.1-7.8c19.9,3.3,38.6,9.9,56.9,18.1
		c21.9,9.9,44.8,16.3,69.2,15.8c3.4-0.1,4.4-1.1,4.4-4.6c-0.2-13.9-0.1-27.9-0.1-41.8c0-5,0-5-4.6-3.4c-19.4,7-39.2,11.8-59.9,11.4
		c-25.5-0.5-49.3-7.8-72.3-18.3c-19.7-9-40-15.6-61.8-17c-22.5-1.4-43.7,4.6-64.5,12.6c-3.2,1.2-4.3,2.8-4.3,6.4
		c0.1,56.5,0.1,113.1,0.1,169.6C122.4,292.2,122.4,293.7,122.4,295.8z"/>
	<path class="st1" d="M452,304.9c-6.7,1.5-8.9,4.1-8.9,11.1c0,12.6,0,25.2,0,37.9c0,1.7,0.4,3.3-2,4.3c-21.5,8.6-43.5,15-67,13.5
		c-21.7-1.4-42-8.1-61.7-17.1c-24.5-11.2-50-18.7-77.2-18.2c-19,0.4-37.3,4.9-55,11.6c-3.5,1.3-4.4,1-4.3-3
		c0.1-56.1,0.1-112.2,0-168.3c0-3,1-4.3,3.7-5.4c20.2-7.9,40.8-13.8,62.7-13c21.3,0.9,41.4,6.9,60.7,15.6
		c18.3,8.3,37.1,14.9,56.9,18.1c24,4,47.2,0.4,70.1-6.8c3.1-1,6.3-1.9,9.2-3.2c3-1.4,4-1,3.9,2.6c-0.2,15.7-0.1,31.5-0.1,47.2
		c0,7,2.2,9.6,8.9,11.1c0,7.3,0,14.7,0,22c-5.9,1.2-8.8,4.1-8.9,8.8c-0.1,4.9,2.9,8,8.9,9.3C452,290.2,452,297.5,452,304.9z
		 M356,302.9c0.1-5-3.8-9.1-8.8-9.1c-4.7,0-8.8,3.9-8.9,8.7c-0.1,5,3.9,9,8.9,9C352.1,311.5,355.9,307.8,356,302.9z M309.6,202.6
		c-4.8-0.1-8.8,3.7-9.1,8.5c-0.2,4.9,3.8,9.2,8.7,9.3c4.8,0.1,8.8-3.7,9.1-8.5C318.5,206.9,314.5,202.7,309.6,202.6z M356,226.9
		c-0.1-4.9-3.9-8.6-8.8-8.6c-5,0-9,4.1-8.9,9c0.1,4.8,4.1,8.7,8.9,8.7C352.2,236,356.1,232,356,226.9z M256.1,273.8
		c4.8-0.1,8.7-4,8.8-8.8c0.1-4.9-4.1-9-9-9c-4.8,0.1-8.7,4-8.8,8.8C247.1,269.8,251.2,273.9,256.1,273.8z M371.8,264.8
		c-0.1-4.8-4-8.7-8.8-8.8c-4.9-0.1-9.1,4.1-9,9c0.1,4.8,4,8.7,8.8,8.8C367.7,273.8,371.8,269.7,371.8,264.8z M271.8,311.5
		c4.8-0.1,8.7-3.9,8.8-8.7c0.1-4.9-4.1-9.1-9-9c-5,0.1-8.8,4.2-8.7,9.2C263,307.9,266.9,311.6,271.8,311.5z M309.4,309.5
		c-4.8,0-8.8,3.9-8.9,8.7c-0.1,4.9,4,9.1,8.9,9.1c4.8,0,8.8-3.9,8.9-8.7C318.4,313.6,314.4,309.4,309.4,309.5z M262.8,226.9
		c-0.1,5,3.8,9.1,8.8,9.1c4.8,0,8.7-3.9,8.9-8.7c0.1-5-3.9-9-8.9-9C266.8,218.3,262.9,222,262.8,226.9z"/>
	<path class="st2" d="M451.9,282.9c-6-1.3-9-4.4-8.9-9.3c0.1-4.7,3-7.6,8.9-8.8c5.8,1.3,8.8,4.2,8.9,8.8
		C460.9,278.4,457.9,281.5,451.9,282.9z"/>
	<path class="st3" d="M354,68.1c0,15.6-0.1,30.6,0.1,45.6c0,2.5-0.9,3.1-3.2,3.6c-24.8,5.4-48.6,1.2-72.1-6.8
		c-14.7-5-28.5-12.4-43.2-17.4c-36.5-12.5-72.5-11.3-108.3,2.6c-3.7,1.4-5,1.4-4.9-3.2c0.1-4.8-4.1-8.3-8.8-8.3
		c-4.6,0-8.4,3.5-8.8,8.3c-0.1,1.5-0.1,3-0.1,4.5c0,43.8,0,87.6,0.1,131.4c0,3.2-0.7,4.6-4,5.3c-10.6,2-20.9,5.3-31.1,9
		c-1-1.5-0.5-3-0.5-4.4c0-57.7,0-115.5-0.1-173.2c0-3.4,1-4.8,4.2-6c22.4-8.2,45.3-14.3,69.5-12.9c23,1.4,44.8,8,65.9,17.1
		c26.1,11.2,53.1,18.7,81.8,18.3c20.4-0.3,39.9-5.1,59.1-11.7C350.7,69.2,352.1,68.7,354,68.1z"/>
	<path class="st4" d="M122.4,295.8c0-2.2,0-3.6,0-5.1c0-56.5,0-113.1-0.1-169.6c0-3.6,1.1-5.2,4.3-6.4c20.8-7.9,42-14,64.5-12.6
		c21.7,1.4,42.1,8,61.8,17c23,10.5,46.8,17.8,72.3,18.3c20.7,0.4,40.5-4.4,59.9-11.4c4.6-1.7,4.6-1.7,4.6,3.4
		c0,13.9-0.1,27.9,0.1,41.8c0.1,3.5-0.9,4.5-4.4,4.6c-24.4,0.5-47.2-5.9-69.2-15.8c-18.3-8.3-37.1-14.8-56.9-18.1
		c-25.1-4.2-49.3-0.1-73.1,7.8c-1,0.3-1.9,0.7-2.9,1c-2.1,0.7-4.5,2.4-6.2,1.9c-2.4-0.7-0.7-3.8-1.3-5.7c-1.3-4-4.9-6.8-9-6.6
		c-4.3,0.2-7.9,3.4-8.5,7.7c-0.2,1.5-0.1,3-0.1,4.4c0,42.9,0,85.8,0.1,128.7c0,3.5-1,4.7-4.4,5.4
		C143.2,288.5,133.1,291.9,122.4,295.8z"/>
	<path class="st2" d="M356,302.9c-0.1,4.9-3.9,8.6-8.8,8.6c-5,0-9-4.1-8.9-9c0.1-4.7,4.1-8.7,8.9-8.7
		C352.2,293.8,356.1,297.9,356,302.9z"/>
	<path class="st2" d="M309.6,202.6c4.9,0.1,8.9,4.4,8.7,9.3c-0.2,4.8-4.3,8.6-9.1,8.5c-4.9-0.1-8.9-4.3-8.7-9.3
		C300.8,206.3,304.8,202.5,309.6,202.6z"/>
	<path class="st2" d="M356,226.9c0.1,5.1-3.8,9.1-8.8,9.1c-4.8,0-8.7-3.9-8.9-8.7c-0.1-5,3.9-9,8.9-9
		C352.1,218.3,355.9,222,356,226.9z"/>
	<path class="st2" d="M256.1,273.8c-4.9,0.1-9.1-4-9-9c0-4.8,4-8.7,8.8-8.8c4.9-0.1,9.1,4,9,9C264.8,269.8,260.9,273.7,256.1,273.8z
		"/>
	<path class="st2" d="M371.8,264.8c0.1,4.9-4,9.1-9,9c-4.8-0.1-8.7-4-8.8-8.8c-0.1-4.9,4-9.1,9-9C367.7,256.1,371.7,260,371.8,264.8
		z"/>
	<path class="st2" d="M271.8,311.5c-4.9,0.1-8.8-3.6-8.9-8.5c-0.2-5,3.7-9.2,8.7-9.2c4.9-0.1,9.1,4.1,9,9
		C280.5,307.6,276.6,311.4,271.8,311.5z"/>
	<path class="st2" d="M309.4,309.5c4.9,0,9,4.2,8.9,9.1c-0.1,4.8-4.1,8.7-8.9,8.7c-4.9,0-9-4.2-8.9-9.1
		C300.7,313.4,304.6,309.5,309.4,309.5z"/>
	<path class="st2" d="M262.8,226.9c0.1-4.9,3.9-8.6,8.8-8.6c5,0,9,4.1,8.9,9c-0.1,4.8-4.1,8.7-8.9,8.7
		C266.7,236,262.7,231.9,262.8,226.9z"/>
</g>
</svg>
